<?xml version="1.0" encoding="UTF-8"?>
<svg id="b" data-name="TAIHETU" xmlns="http://www.w3.org/2000/svg" viewBox="0 0 136.11 136.11">
  <g id="c" data-name="0">
    <g>
      <g id="d" data-name="ARC">
        <path d="M126.99,102.07c-18.79,32.55-60.41,43.7-92.96,24.91-10.34-5.97-18.94-14.56-24.91-24.91-6.88-11.91-2.8-27.15,9.12-34.02,11.91-6.88,27.15-2.8,34.02,9.12,1.74,3.01,2.82,6.34,3.19,9.79,1.31,12.21,8.37,23.05,19,29.19,18.39,10.62,41.91,4.32,52.52-14.07" style="fill: #7f7f7f;"/>
      </g>
      <g id="e" data-name="ARC">
        <path d="M9.13,102.07C-9.66,69.53,1.49,27.91,34.04,9.12,44.38,3.14,56.12,0,68.06,0c13.76,0,24.91,11.15,24.91,24.91s-11.15,24.91-24.91,24.91c-3.47,0-6.9-.73-10.08-2.13-11.23-4.97-24.15-4.27-34.78,1.86C4.81,60.17-1.49,83.68,9.13,102.07" style="fill: #fff;"/>
      </g>
      <g id="f" data-name="ARC">
        <path d="M68.06,0c37.58,0,68.05,30.47,68.05,68.05,0,11.95-3.14,23.68-9.12,34.02-6.88,11.91-22.11,15.99-34.02,9.12-11.91-6.88-15.99-22.11-9.12-34.02,1.74-3.01,4.08-5.62,6.88-7.66,9.91-7.24,15.78-18.78,15.78-31.05C106.51,17.21,89.3,0,68.06,0"/>
      </g>
      <g id="g" data-name="CIRCLE">
        <circle cx="30.7" cy="89.62" r="8.3" style="fill: #fff;"/>
      </g>
      <g id="h" data-name="CIRCLE">
        <circle cx="105.42" cy="89.62" r="8.3" style="fill: #7f7f7f;"/>
      </g>
      <g id="i" data-name="CIRCLE">
        <circle cx="68.06" cy="24.91" r="8.3"/>
      </g>
    </g>
  </g>
</svg>